<svg width="16" height="17" viewBox="0 0 16 17" fill="none" xmlns="http://www.w3.org/2000/svg">
<rect y="0.5" width="16" height="16" rx="8" fill="#67C15E"/>
<path d="M12.7655 6.14052L6.76552 12.1405C6.73069 12.1754 6.68934 12.203 6.64381 12.2219C6.59829 12.2408 6.54949 12.2505 6.50021 12.2505C6.45093 12.2505 6.40213 12.2408 6.35661 12.2219C6.31108 12.203 6.26972 12.1754 6.2349 12.1405L3.6099 9.51552C3.53953 9.44516 3.5 9.34972 3.5 9.25021C3.5 9.1507 3.53953 9.05526 3.6099 8.9849C3.68026 8.91453 3.7757 8.875 3.87521 8.875C3.97472 8.875 4.07016 8.91453 4.14052 8.9849L6.50021 11.3451L12.2349 5.6099C12.3053 5.53953 12.4007 5.5 12.5002 5.5C12.5997 5.5 12.6952 5.53953 12.7655 5.6099C12.8359 5.68026 12.8754 5.7757 12.8754 5.87521C12.8754 5.97472 12.8359 6.07016 12.7655 6.14052Z" fill="white"/>
</svg>
