<svg width="203" height="169" viewBox="0 0 203 169" fill="none" xmlns="http://www.w3.org/2000/svg">
<g clip-path="url(#clip0_361_4873)">
<path d="M4.02166 159.898H0C0.660273 159.314 1.04443 158.499 1.04443 157.248V136.27C1.04443 135.02 0.660273 134.2 0 133.621H4.02166C3.36139 134.204 2.97723 135.02 2.97723 136.27V157.248C2.97723 158.499 3.36139 159.318 4.02166 159.898Z" fill="black"/>
<path d="M22.8817 141.86C22.2214 142.444 21.4371 143.327 20.9689 144.51L14.8663 159.897H14.4181L8.31562 144.51C7.84743 143.327 7.06311 142.44 6.40283 141.86H10.4125C9.75222 142.444 9.77623 143.319 10.2484 144.51L15.3825 157.46L20.5167 144.51C20.9889 143.319 21.0129 142.44 20.3526 141.86H22.0133C22.0133 141.86 22.4975 141.86 22.8776 141.86H22.8817Z" fill="black"/>
<path d="M43.6661 150.879C43.6661 156.113 39.3243 160.361 33.9661 160.361C28.6079 160.361 24.2661 156.117 24.2661 150.879C24.2661 145.64 28.6079 141.396 33.9661 141.396C39.3243 141.396 43.6661 145.64 43.6661 150.879ZM41.7333 150.879C41.7333 145.996 38.8361 141.844 33.9661 141.844C29.0961 141.844 26.1989 145.996 26.1989 150.879C26.1989 155.761 29.0961 159.913 33.9661 159.913C38.8361 159.913 41.7333 155.761 41.7333 150.879Z" fill="black"/>
<path d="M59.6606 144.797C59.1524 144.797 58.7122 144.453 58.5882 143.962C58.3281 142.923 57.5478 142.176 56.1192 142.176C52.5577 142.176 50.2888 146.539 50.2888 150.483V157.248C50.2888 158.498 50.6729 159.318 51.3332 159.897H47.3115C47.9718 159.314 48.356 158.498 48.356 157.248V145.12C48.356 143.87 47.9718 143.051 47.3115 142.471C47.8878 142.351 50.2888 141.864 50.2888 141.864V147.378C51.2411 144.118 53.6621 141.4 57.0956 141.4C58.7643 141.4 59.9648 142.132 60.597 143.107C61.0692 143.834 60.529 144.797 59.6606 144.797Z" fill="black"/>
<path d="M78.7644 141.86C78.1041 142.444 77.3198 143.327 76.8516 144.51L70.7491 159.898C68.5481 165.444 66.5913 167.929 63.6661 168.481C62.9498 168.616 62.2896 168.073 62.2896 167.346V167.322C62.2896 166.694 62.7898 166.187 63.418 166.167C66.4913 166.083 68.22 165.392 70.3049 159.894L64.2023 144.506C63.7341 143.323 62.9498 142.436 62.2896 141.856H66.2992C65.6389 142.44 65.6629 143.315 66.1351 144.506L71.2693 157.456L76.4034 144.506C76.8756 143.315 76.8996 142.436 76.2393 141.856H77.9C77.9 141.856 78.3842 141.856 78.7644 141.856V141.86Z" fill="black"/>
<path d="M115.172 159.897H110.258C110.746 159.47 110.31 158.651 109.705 157.943C107.877 159.574 105.5 160.357 102.674 160.357C97.4283 160.357 93.6787 156.777 93.6787 152.365C93.6787 148.617 96.2758 146.691 99.245 145.173C98.0725 142.987 97.3402 140.877 97.3402 139.063C97.3402 135.711 99.5331 133.153 103.339 133.153C106.308 133.153 108.325 135.003 108.325 137.928C108.325 141.9 104.579 143.263 101.154 144.997C103.295 149.284 106.932 153.444 110.302 156.609C111.934 154.655 112.987 151.742 113.311 147.874C113.407 146.659 113.031 145.82 112.37 145.245H114.907C114.303 145.776 113.895 146.495 113.783 147.586C113.775 147.686 113.767 147.782 113.759 147.882C113.759 147.886 113.759 147.89 113.759 147.898C113.439 151.91 112.366 154.903 110.662 156.952C110.77 157.052 110.878 157.152 110.982 157.248C111.918 158.079 114.331 159.614 115.168 159.897H115.172ZM109.365 157.576C109.281 157.492 109.201 157.412 109.117 157.336C109.097 157.32 109.077 157.3 109.057 157.28C109.045 157.268 109.033 157.26 109.021 157.248C105.696 154.183 101.946 149.916 99.6092 145.84C97.3842 147.159 95.6075 148.873 95.6075 151.95C95.6075 156.833 99.173 159.578 103.767 159.578C105.948 159.578 107.845 158.91 109.361 157.576H109.365ZM99.273 138.068C99.273 140.126 99.8733 142.272 100.862 144.394C104.383 142.755 107.877 141.329 107.877 137.932C107.877 135.819 106.72 133.705 103.907 133.705C100.938 133.705 99.277 135.219 99.277 138.068H99.273Z" fill="black"/>
<path d="M132.727 146.759C132.727 153.764 137.537 159.913 144.336 159.913C146.701 159.913 148.825 159.166 150.594 157.899V149.628C150.594 148.377 149.866 147.534 149.174 146.979H153.571C152.911 147.562 152.527 148.377 152.527 149.628V159.893L150.714 158.231C148.813 159.59 146.592 160.353 144.336 160.353C136.856 160.353 130.794 154.263 130.794 146.751C130.794 139.239 136.856 133.149 144.336 133.149C146.729 133.149 148.977 133.777 150.926 134.868H150.934C150.934 134.868 151.787 138.576 152.107 139.946C151.178 138.252 147.309 133.593 144.336 133.593C137.537 133.593 132.727 139.743 132.727 146.747V146.759Z" fill="black"/>
<path d="M176.545 150.879C176.545 156.113 172.203 160.361 166.845 160.361C161.487 160.361 157.145 156.117 157.145 150.879C157.145 145.64 161.487 141.396 166.845 141.396C172.203 141.396 176.545 145.64 176.545 150.879ZM174.612 150.879C174.612 145.996 171.715 141.844 166.845 141.844C161.975 141.844 159.078 145.996 159.078 150.879C159.078 155.761 161.975 159.913 166.845 159.913C171.715 159.913 174.612 155.761 174.612 150.879Z" fill="black"/>
<path d="M184.1 159.898H180.079C180.739 159.314 181.123 158.499 181.123 157.248V136.878C181.123 135.627 180.739 134.808 180.079 134.228C180.655 134.109 183.056 133.621 183.056 133.621V157.252C183.056 158.503 183.44 159.322 184.1 159.902V159.898Z" fill="black"/>
<path d="M203 159.898H201.956C200.887 159.898 200.023 159.034 200.023 157.968V156.733C198.606 158.847 196.241 160.357 193.252 160.357C189.078 160.357 187.246 156.765 187.246 153.608C187.246 144.63 197.418 141.86 200.023 141.86V136.878C200.023 135.627 199.639 134.808 198.978 134.228C199.555 134.109 201.956 133.621 201.956 133.621V157.252C201.956 158.503 202.34 159.322 203 159.902V159.898ZM200.023 142.308C198.11 142.308 189.178 143.922 189.178 152.993C189.178 156.421 190.971 159.586 194.369 159.586C196.746 159.586 198.842 158.091 200.023 155.942V142.308Z" fill="black"/>
<path d="M101.338 0.5C82.7302 0.5 67.5879 15.6162 67.5879 34.2007V83.9765C67.5879 102.557 82.7262 117.677 101.338 117.677C119.95 117.677 135.088 102.561 135.088 83.9765V34.2007C135.088 15.6162 119.946 0.5 101.338 0.5ZM134.239 31.971C133.947 29.7094 133.431 27.5117 132.707 25.4139C133.431 27.5117 133.947 29.7054 134.239 31.971ZM101.338 1.2632C115.544 1.2632 127.681 10.2778 132.315 22.8766C127.125 10.9211 115.196 2.53786 101.338 2.53786C87.4801 2.53786 75.5512 10.9211 70.361 22.8766C74.995 10.2738 87.132 1.2632 101.338 1.2632ZM126.16 13.7221C125.436 12.927 124.676 12.1678 123.883 11.4485C124.68 12.1718 125.44 12.931 126.16 13.7221ZM68.4322 31.971C68.7244 29.7094 69.2406 27.5117 69.9649 25.4139C69.2406 27.5117 68.7244 29.7054 68.4322 31.971ZM76.5116 106.489C77.2359 107.284 77.9962 108.043 78.7885 108.763C77.9922 108.039 77.2319 107.284 76.5116 106.489ZM123.883 108.767C124.68 108.043 125.44 107.288 126.16 106.493C125.436 107.288 124.676 108.047 123.883 108.767ZM101.338 116.918C87.132 116.918 74.995 107.903 70.361 95.3047C75.5512 107.26 87.4801 115.643 101.338 115.643C115.196 115.643 127.125 107.256 132.315 95.3047C127.681 107.903 115.544 116.918 101.338 116.918ZM134.324 81.9427C134.324 100.104 119.525 114.88 101.338 114.88C83.1503 114.88 68.3522 100.104 68.3522 81.9427V36.2346C68.3522 18.0736 83.1503 3.29707 101.338 3.29707C119.525 3.29707 134.324 18.0736 134.324 36.2346V81.9427Z" fill="black"/>
<path d="M105.251 87.7882V44.9691C105.063 44.9451 104.871 44.9291 104.691 44.9291C103.851 44.9291 103.034 44.9851 102.23 45.1169V87.7842C102.23 89.6023 101.67 90.9849 100.565 91.9279H106.848C105.784 90.9809 105.251 89.6023 105.251 87.7842V87.7882ZM100.565 27.5273C101.67 28.4823 102.23 29.8649 102.23 31.671V42.7754C103.038 42.6755 103.863 42.6355 104.691 42.6355C104.879 42.6355 105.071 42.6355 105.251 42.6435V31.671C105.251 29.8609 105.788 28.4783 106.848 27.5273H100.565Z" fill="black"/>
<path d="M112.278 65.0724C113.743 66.2552 114.479 67.6377 114.479 69.2161V82.1186C111.546 84.2164 108.285 85.2593 104.695 85.2593C101.106 85.2593 98.1326 84.3123 95.3234 82.4143C92.5143 80.5242 90.3494 78.0069 88.8328 74.8662C87.3081 71.7335 86.5438 68.345 86.5438 64.7168C86.5438 61.0886 87.3081 57.6922 88.8328 54.5594C90.3494 51.4187 92.5143 48.8934 95.3234 46.9754C97.4483 45.5289 99.7453 44.6298 102.234 44.2782C103.035 44.1623 103.855 44.1064 104.695 44.1064C104.875 44.1064 105.067 44.1144 105.256 44.1384C106.204 44.2462 107.24 44.6338 108.337 45.2892C109.661 46.0803 110.89 47.0233 112.018 48.1342C113.147 49.237 114.135 50.3199 114.984 51.3908C115.832 52.4537 116.456 53.3407 116.852 54.056C116.532 52.6335 115.92 49.9842 115.008 46.1203C111.978 44.4341 108.725 43.547 105.256 43.4631C105.075 43.4551 104.883 43.4551 104.695 43.4551C103.863 43.4551 103.039 43.495 102.234 43.5949C99.3371 43.9146 96.608 44.8137 94.0789 46.2921C90.8336 48.1901 88.2645 50.7674 86.3677 54.024C84.4669 57.2806 83.5186 60.8409 83.5186 64.7168C83.5186 68.5927 84.4669 72.145 86.3677 75.4016C88.2605 78.6582 90.8336 81.2315 94.0789 83.1335C97.3163 85.0235 100.858 85.9705 104.695 85.9705C108.253 85.9705 111.574 84.8677 114.651 82.658L117.501 85.2633V69.2161C117.501 67.398 118.053 66.0154 119.157 65.0724H112.278Z" fill="black"/>
</g>
<defs>
<clipPath id="clip0_361_4873">
<rect width="203" height="168" fill="white" transform="translate(0 0.5)"/>
</clipPath>
</defs>
</svg>
