<svg width="1920" height="1513" viewBox="0 0 1920 1513" fill="none" xmlns="http://www.w3.org/2000/svg">
<path opacity="0.1" fill-rule="evenodd" clip-rule="evenodd" d="M1794.53 -205.184C1805.86 -198.094 1817.19 -191.002 1828.52 -183.911C1822.93 -181.933 1813.27 -183.507 1807.32 -183.817C1789.53 -184.751 1767.86 -183 1750.27 -180.717C1692.13 -173.175 1650.65 -159.848 1592.29 -130.734C1568.29 -118.764 1543.37 -95.0437 1532.37 -81.7173C1490.24 -30.6592 1487.08 19.3773 1535.2 68.9151C1548.16 82.2606 1572.9 98.5621 1594.08 106.4C1628.24 119.04 1659.74 125.125 1693.12 127.035C1706.55 127.804 1720.19 123.607 1733.43 124.269C1733.6 124.592 1733.79 124.917 1733.96 125.24C1717.02 132.718 1688.78 133.059 1670.67 132.066C1639.99 130.385 1610.82 127.826 1579.3 117.502C1512.77 95.715 1481.04 51.7845 1470.78 17.78C1450.94 -47.9729 1509.7 -141.232 1636.86 -181.087C1673.09 -192.443 1709.25 -199.636 1745.8 -203.234C1762.04 -203.884 1778.29 -204.533 1794.53 -205.184ZM2095.87 -16.5855C2102.47 -12.4587 2109.06 -8.33044 2115.66 -4.20215C2098.54 8.14669 2089.91 23.9309 2080.52 36.7879C2062.34 63.5705 2044.15 90.3626 2025.96 117.147C1979.78 179.911 1880.51 243.273 1792.77 270.828C1660.07 312.506 1528.3 301.102 1395.33 324.257C1351.76 331.843 1265.37 349.489 1225.64 387.904C1157.18 454.079 1169.92 505.343 1162.3 569.006C1155.73 623.841 1150.75 677.832 1120.88 733.292C1095.59 780.242 1046.87 833.878 967.17 867.378C934.634 881.053 900.312 891.045 866.934 896.886C729.26 920.974 567.647 906.337 427.007 860.746C347.196 834.875 268.348 791.577 187.523 764.935C97.5241 735.27 12.5932 723.043 -75.4557 716.763C-107.954 714.445 -141.855 713.147 -174.091 716.103C-218.539 720.175 -254.776 723.456 -300.081 732.035C-311.75 734.246 -326.65 735.413 -337.669 740.317C-343.419 736.718 -349.169 733.119 -354.917 729.522C-354.758 729.41 -354.599 729.298 -354.44 729.186C-324.156 723.159 -295.246 716.066 -264.988 712.013C-141.3 695.44 -13.7358 700.585 112.164 733.676C163.224 747.098 211.331 768.816 263.577 789.634C300.227 804.237 331.854 821.963 368.127 834.075C507.136 880.492 646.838 908.37 782.455 892.999C828.695 887.759 876.057 878.698 921.561 861.736C941.097 854.455 959.136 845.187 978.566 835.708C1027.9 811.64 1062.75 773.319 1081.02 745.881C1132.24 668.968 1127.25 597.685 1137.52 522.329C1142.95 482.431 1150.78 446.192 1182.04 405.153C1191.21 393.112 1206.93 375.262 1228.52 364.265C1255.48 350.526 1276.67 337.649 1302.88 329.373C1436.45 287.191 1568.16 302.312 1701.57 281.815C1747.03 274.832 1790.27 262.173 1835.48 244.759C1853.49 235.884 1871.5 227.008 1889.5 218.134C1987.46 169.388 2019.34 93.5626 2052.04 39.3214C2062.72 21.6082 2074.89 0.589904 2095.87 -16.5855ZM2201.39 49.4565C2210.52 55.1706 2219.66 60.8877 2228.79 66.6018C2218.25 69.7581 2207.71 72.9161 2197.17 76.0755C2180.06 81.4888 2164.12 89.6639 2147.36 97.7028C2083.39 128.381 2039.62 188.934 2014.02 224.177C1974.49 278.606 1946.09 330.878 1895.13 387.055C1873.72 410.659 1839.61 437.401 1802.99 454.073C1787.16 461.284 1770.16 468.06 1754.59 474.035C1747.16 477.022 1739.74 480.007 1732.31 482.994C1717.76 484.915 1697.4 478.318 1682.64 474.808C1651.08 467.303 1618.35 458.519 1586.56 454.113C1513.1 443.937 1444.86 446.659 1372.91 483.252C1362.55 488.522 1348.18 497.596 1340.38 505.52C1331.6 514.866 1322.82 524.214 1314.04 533.561C1314.2 533.667 1314.37 533.772 1314.54 533.878C1335.76 518.42 1358.31 507.087 1380.57 500.136C1484.57 467.666 1656.79 488.833 1751.03 581.225C1789.45 618.892 1812.75 655.961 1822.67 694.129C1830.73 725.177 1829.92 756.047 1814.55 787.651C1812.38 792.107 1796.8 816.738 1786.83 818.012C1786.64 817.471 1786.45 816.927 1786.26 816.386C1803.74 796.895 1804.04 776.875 1806.3 757.677C1812.64 703.787 1776.85 646.795 1723.02 594.231C1641.78 514.905 1489.61 488.397 1399.46 514.503C1284.92 547.669 1244.25 652.793 1225.23 707.634C1197.65 787.175 1152.46 895.256 1001.03 951.55C946.343 971.883 892.799 978.556 837.807 983.621C801.678 986.948 761.713 983.926 725.262 980.615C617.914 970.864 509.539 951.392 400.913 916.299C350.955 897.966 300.981 879.628 251.024 861.295C158.572 831.621 64.8669 819.305 -25.9672 830.434C-57.2727 834.271 -118.225 843.496 -146.92 859.699C-153.854 855.359 -160.787 851.02 -167.718 846.682C-140.242 836.573 -115.542 826.217 -88.0237 820.857C12.9693 801.182 112.226 807.746 215.339 835.14C291.716 855.434 365.246 891.368 441.133 911.57C597.252 953.126 759.142 980.675 912.402 953.966C944.365 948.395 977.164 938.476 1008.31 926.837C1067.24 904.812 1134.98 857.903 1159.19 817.703C1206.44 739.245 1218.95 662.661 1264.51 583.354C1285.08 547.532 1290.81 501.073 1359.36 467.144C1450.88 421.847 1538.37 423.201 1632.36 442.067C1657.81 448.877 1683.26 455.688 1708.71 462.5C1718.55 465.139 1731.94 471.777 1741.61 470.363C1759.29 466.137 1772.8 451.196 1789.66 442.547C1801.44 434.233 1813.23 425.916 1825.02 417.602C1834.85 409.546 1844.68 401.489 1854.5 393.43C1874.18 373.178 1892.38 353.314 1907.02 333.423C1949.53 275.68 1982.37 220.758 2031.47 162.574C2049.22 141.539 2085.75 103.323 2122.62 84.7641C2138.97 76.5373 2154.3 67.2469 2170.85 60.8749C2181.03 57.0673 2191.21 53.2626 2201.39 49.4565ZM2376.42 158.996C2388.94 167.045 2401.47 175.097 2413.99 183.146C2412.51 183.284 2411.04 183.422 2409.57 183.56C2382.97 176.951 2327.12 182.608 2299.26 186.407C2263.54 191.276 2228.66 200.404 2193.03 214.068C2137.45 235.379 2072.87 281.492 2038.53 319.67C1967.01 399.185 1928.44 465.019 1917.9 542.531C1913.25 576.774 1920.42 611.394 1916.14 645.755C1915.09 654.16 1917.68 677.716 1909.99 684.533C1903.52 677.763 1907.91 664.971 1906.31 657.415C1901.27 633.702 1901.09 609.675 1896.2 586.204C1877.86 498.051 1927.83 407.208 2003.9 317.085C2035.05 280.178 2093.25 233.469 2150.37 208.366C2201.92 185.707 2251.59 170.684 2303.66 163.719C2321.35 162.276 2339.03 160.832 2356.71 159.389C2363.28 159.257 2369.85 159.127 2376.42 158.996ZM2709.21 367.28C2710.57 368.126 2711.92 368.973 2713.27 369.82C2713.03 371.789 2712.79 373.76 2712.55 375.729C2711.91 375.96 2711.26 376.192 2710.61 376.423C2709.15 373.683 2707.96 370.073 2709.21 367.28ZM2541.85 274.622C2623.39 323.853 2644.29 399.615 2528.77 433.105C2469.54 450.274 2392 445.404 2330.98 442.276C2311.6 441.281 2288.74 443.857 2269.54 446.445C2261.06 447.589 2249.04 452.617 2240.61 449.966C2251.61 445.546 2267.08 443.998 2278.71 442.003C2353.56 429.164 2426.54 443.594 2501.42 428.078C2538.21 420.456 2584.18 392.902 2589.38 366.71C2596.73 329.722 2544.06 283.047 2478.89 267.027C2409.57 249.986 2339.04 256.999 2271.55 282.938C2253.08 290.037 2237.86 301.02 2219.05 310.514C2209.67 317.361 2200.28 324.209 2190.89 331.057C2180.43 339.781 2169.98 348.508 2159.53 357.232C2143.03 374.365 2127.98 391.015 2115.94 407.563C2048.75 499.926 2039.42 588.209 2048.27 678.836C2052.37 720.717 2050.6 763.671 2025.9 806.054C2018.28 819.123 2005.8 839.759 1982.1 851.802C1966.55 859.71 1954.35 867.351 1939.13 871.985C1870.04 893.013 1797.04 869.265 1725.1 837.909C1695.48 824.998 1667.72 803.275 1649.81 786.335C1644.26 781.083 1629.26 772.386 1632.18 767.03C1654.19 783.306 1675.93 806.651 1708.57 821.201C1797.31 860.76 1919.39 905.59 1982.6 819.034C1991.26 807.162 1997.64 794.083 2001.64 781.965C2011.88 750.927 2013.38 717.698 2009.19 686.815C2008.38 672.528 2007.57 658.237 2006.77 643.95C2005.92 628.791 2005.07 613.626 2004.23 598.466C2006.72 577.19 2007.22 555.798 2011.7 534.439C2022.17 484.493 2046.6 435.422 2086.81 384.879C2142.52 314.857 2241 249.643 2339.55 238.342C2389.89 232.569 2446.47 237.759 2497.55 254.531C2507.6 258.7 2517.65 262.868 2527.7 267.035C2532.42 269.568 2537.14 272.097 2541.85 274.622ZM1893.65 -117.066C1954.81 -80.0113 1967.54 -42.7353 1963.79 -4.46098C1963.3 -4.34234 1962.82 -4.22204 1962.33 -4.1034C1962.16 -4.20903 1961.99 -4.31468 1961.82 -4.42028C1960.88 -10.7345 1959.94 -17.0503 1959 -23.363C1955.2 -38.1795 1946.97 -53.9698 1934.78 -68.4158C1881.44 -131.621 1769.7 -139.274 1703.18 -120.488C1595.69 -90.1252 1556.18 -16.0666 1616.63 37.8156C1637.8 56.6803 1671.58 66.5843 1694.62 72.6294C1701.25 74.0263 1707.89 75.4231 1714.53 76.82C1713.89 77.2701 1713.26 77.7186 1712.62 78.1688C1690.52 76.5264 1669.36 75.4351 1646.59 68.0149C1514.69 25.045 1535.58 -83.0654 1658.44 -128.771C1715.48 -149.993 1779.78 -153.808 1838.43 -138.898C1851.71 -135.523 1865.05 -130.301 1878.01 -124.943C1883.22 -122.319 1888.43 -119.693 1893.65 -117.066ZM2675.57 419.379C2677.86 423.594 2672.16 428.95 2669.29 433.263C2651.58 459.918 2617.75 474.252 2583.64 480.171C2489.45 496.518 2393.75 475.513 2299.79 493.998C2273.34 499.201 2250.52 510.594 2224.21 523.672C2199.67 535.871 2183.01 555.577 2172.51 568.923C2138.38 612.264 2125.58 650.857 2119.92 693.139C2118.42 704.301 2121.29 743.154 2114.63 750.899C2114.46 750.793 2114.29 750.688 2114.12 750.582C2114.1 750.147 2114.08 749.708 2114.06 749.273C2113.62 743.057 2113.18 736.842 2112.73 730.627C2108.17 708.672 2106.29 684.994 2109.19 662.888C2112.68 636.296 2116.23 609.893 2130.74 582.856C2138.57 568.262 2149.8 554.364 2162.32 539.644C2189.26 507.952 2240.91 487.955 2278.48 480.664C2320.67 472.478 2363.75 469.56 2406.29 472.23C2461.9 475.719 2521.44 480.665 2576.34 471.145C2597.76 467.43 2617.8 460.5 2638.98 449.918C2655.22 441.797 2667.78 423.035 2675.57 419.379ZM1865.93 -53.6195C1878.06 -46.5032 1906.8 -26.3706 1902.93 -20.2862C1902.59 -20.4974 1902.25 -20.7101 1901.92 -20.9214C1897.7 -23.3487 1893.48 -25.7775 1889.26 -28.2048C1879.04 -32.6969 1868.81 -37.1889 1858.58 -41.681C1815.13 -55.917 1736.91 -56.2031 1697.51 -16.5341C1690.09 -9.07005 1687.82 -1.43264 1682.21 5.06311C1681.55 5.07612 1680.89 5.08928 1680.24 5.10232C1680.07 4.9967 1679.9 4.89104 1679.73 4.78541C1674.86 -9.22212 1672.64 -22.6112 1681.31 -36.8504C1699.86 -67.3002 1755.23 -76.9592 1787.07 -74.9858C1805.45 -73.847 1825.4 -70.4634 1843.79 -63.6644C1851.17 -60.3145 1858.55 -56.9662 1865.93 -53.6195ZM2511.71 360.722C2513.06 361.568 2514.41 362.415 2515.76 363.261C2514.96 363.606 2514.15 363.948 2513.35 364.293C2418.16 328.468 2265.61 330.746 2187.88 417.602C2171.02 436.446 2157.52 455.222 2149.01 474.063C2146.22 480.246 2144.31 494.995 2135.83 498.894C2135.66 498.788 2135.49 498.683 2135.32 498.577C2127.69 489.262 2129.55 475.672 2130.89 465.906C2137.84 415.193 2192.21 354.492 2281.31 335.489C2337.11 323.589 2397.16 324.187 2454.04 339.264C2466.56 343.493 2479.08 347.722 2491.59 351.95C2498.3 354.871 2505 357.796 2511.71 360.722ZM1982.32 67.5669C1986.69 73.2524 1965.56 99.4694 1959.93 106.994C1930.56 146.313 1869.85 195.036 1808.3 221.385C1714.27 261.633 1635.98 267.479 1542.06 276.138C1527.46 276.537 1512.84 276.937 1498.24 277.336C1429.34 283.589 1362.76 282.44 1293.82 303.345C1262.55 312.827 1238.47 327.359 1205.93 344.401C1181.42 357.242 1165.71 377.664 1155.3 391.596C1121.41 436.967 1114.8 478.885 1107.49 523.251C1096.23 591.518 1082.43 659.058 1023.53 728.348C1011.27 742.77 992.689 755.657 977.115 770.546C952.403 794.172 900.256 816.436 873.072 825.026C765.809 858.919 657.243 852.13 547.017 821.347C514.865 812.368 460.087 792.929 431.248 768.612C422.224 761.006 396.148 748.329 395.5 741.151C395.659 741.039 395.817 740.927 395.976 740.815C434.997 773.211 491.545 795.847 534.604 808.491C648.047 841.803 747.748 844.404 858.219 801.736C887.205 790.54 937.848 764.91 962.924 740.036C976.94 726.132 992.123 713.759 1002.53 699.94C1072.17 607.506 1057.02 520.788 1088.5 429.941C1101.34 392.862 1138.99 336.796 1205.63 304.77C1265.34 276.079 1320.89 264.586 1381.04 258.7C1395.8 257.971 1410.56 257.24 1425.32 256.51C1457.99 255.97 1490.68 255.43 1523.36 254.891C1545.32 253.581 1567.29 252.27 1589.25 250.962C1653.29 244.064 1712.75 234.199 1776.72 209.893C1801.67 200.413 1825.79 187.978 1851.58 175.322C1860.85 169.46 1870.12 163.597 1879.39 157.735C1892.14 148.965 1904.89 140.193 1917.65 131.423C1930.61 120.03 1943.57 108.63 1956.54 97.2372C1965.82 87.3666 1973.52 76.6151 1982.32 67.5669ZM1903.87 44.5561C1905.18 46.2161 1904.93 45.2171 1904.47 46.8374C1900.79 56.9813 1888.27 66.6685 1879.68 76.485C1837.34 124.818 1758.33 167.061 1695.6 182.021C1597.06 205.518 1507.17 196.931 1410.27 207.016C1334.9 214.861 1262.55 225.276 1187.57 254.026C1164.09 263.029 1143.67 275.574 1120.05 287.471C1112.88 292.527 1105.71 297.584 1098.54 302.639C1059.39 330.248 1039.68 356.514 1025.26 383.37C992.547 444.32 998.284 503.153 988.492 563.289C984.47 587.989 977.048 610.966 967.612 636.099C953.14 674.638 904.028 732.534 834.093 758.647C756.3 787.694 668.353 782.546 587.807 752.729C501.997 720.963 459.589 657.34 465.702 613.965C467.568 600.716 470.202 583.023 485.909 569.995C489.15 574.327 481.932 593.463 483.324 600.184C488.12 623.343 497.186 645.978 518.957 668.923C536.44 687.353 571.25 710.787 601.259 722.978C674.846 752.872 745.778 763.481 816.344 736.723C830.936 731.189 840.823 723.32 856.3 715.291C877.838 704.12 895.175 685.966 905.167 672.717C944.982 619.913 947.875 569.511 957.358 517.716C964.671 477.777 972.393 439.757 986.538 399.206C1002.93 352.21 1055.32 290.882 1137.27 253.713C1259.89 198.094 1357.62 194.592 1480.21 183.349C1553.72 176.607 1629.48 182.704 1702.6 162.226C1736.8 152.647 1768.26 140.066 1802.9 123.217C1813.28 116.569 1823.67 109.919 1834.05 103.271C1843.6 96.5304 1853.16 89.7881 1862.72 83.0458C1876.43 70.2165 1890.16 57.3839 1903.87 44.5561ZM1442.96 155.589C1443.31 156.018 1443.66 156.449 1444.01 156.878C1434.32 157.179 1424.64 157.482 1414.96 157.783C1387.12 159.864 1359.26 161.947 1331.42 164.029C1271.1 171.913 1211.84 184.562 1151.92 206.904C1129.5 215.266 1108.45 225.71 1086.19 236.381C1074.35 243.385 1062.5 250.393 1050.65 257.397C1038.05 263.827 1013.6 289.193 1004.81 290.409C1004.95 289.862 1005.09 289.311 1005.23 288.763C1008.07 282.217 1018.56 276.569 1025.09 270.024C1046.96 248.089 1083.95 224.224 1114.12 210.601C1199.74 171.945 1264.89 162.668 1350.23 154.808C1380.43 152.03 1412.52 155.546 1442.96 155.589ZM1620.48 331.578C1620.84 332.227 1621.2 332.875 1621.56 333.523C1579.37 383.068 1485.57 381.641 1430.79 389.07C1370.41 397.256 1318.22 417.501 1257.93 448.193C1237.15 458.773 1230.31 470.341 1215.55 481.465C1211.39 476.382 1219.29 468.94 1222.63 463.635C1235.17 443.714 1268.63 418.686 1299.45 406.747C1351.89 386.436 1403.42 374.347 1456.41 366.941C1517.31 358.43 1558.84 361.65 1620.48 331.578ZM1139.29 167.192C1139.47 167.733 1139.66 168.277 1139.85 168.818C1122.08 171.9 1104.3 174.985 1086.53 178.067C1039.4 187.259 991.903 202.31 945.921 219.843C872.139 247.978 803.068 291.365 729.344 304.403C663.105 316.118 598.036 309.311 531.206 305.719C464.6 302.139 390.644 315.322 325.912 345.176C266.063 372.776 233.102 417.684 215.299 450.888C171.168 533.202 185.995 618.919 255.062 699.061C282.858 731.316 356.07 791.95 416.261 808.22C416.439 808.543 416.62 808.868 416.799 809.191C415.992 809.536 415.187 809.879 414.38 810.223C390.884 802.347 366.299 793.5 341.167 782.85C292.197 762.099 251.128 725.881 228.433 698.934C163.864 622.273 152.982 544.131 178.988 465.695C193.081 423.191 227.986 363.082 307.441 329.162C364.733 304.704 443.451 287.271 501.422 290.258C572.359 293.915 653.486 300.481 723.176 287.818C788.601 275.929 853.502 238.642 917.594 214.836C989.469 188.14 1065.96 172.325 1139.29 167.192ZM1506.69 552.992C1507.2 553.309 1507.71 553.627 1508.22 553.944C1474.9 574.103 1449.39 590.827 1436.05 615.654C1413.68 657.311 1441.53 698.298 1457.89 739.375C1470.79 771.788 1473.69 802.655 1462.22 835.6C1444.9 885.308 1354.79 914.042 1305.74 962.864C1276.23 992.23 1252.75 1018.12 1232.1 1046.55C1219.65 1065.69 1207.19 1084.83 1194.75 1103.96C1189.75 1097.33 1216.53 1057.31 1221.8 1047.74C1243.6 1008.1 1273.53 972.21 1315.64 930.893C1353.54 893.708 1411.03 870.944 1430.19 835.911C1465.22 771.838 1389.5 707 1405.23 642.805C1413.69 608.271 1452.29 575.746 1506.69 552.992ZM990.007 235.345C990.525 235.881 991.041 236.416 991.56 236.952C974.473 251.87 954.453 267.658 936.991 284.225C928.053 290.08 919.109 295.937 910.171 301.792C899.61 308.115 889.047 314.443 878.485 320.766C841.028 338.253 805.949 350.984 768.155 356.043C707.776 364.128 647.247 350.328 586.266 345.898C501.606 339.747 422.086 354.938 339.816 413.034C326 422.789 314.366 432.934 305.676 443.194C288.877 463.023 272.546 483.276 265.487 503.285C252.676 539.602 244.457 575.803 252.614 611.644C255.533 621.739 258.455 631.839 261.371 641.936C264.127 648.661 270.973 656.567 270.223 663.381C270.064 663.493 269.905 663.605 269.746 663.717C263.123 658.478 261.056 650.902 258.562 645.266C248.457 622.417 243.719 606.416 239.047 584.068C225.534 519.422 256.17 409.904 388.661 358.996C419.862 347.007 450.651 337.738 482.148 332.896C587.136 316.761 695.253 360.112 799.162 332.823C868.066 314.729 922.396 283.241 990.007 235.345ZM1596.45 619.347C1637.82 644.533 1646.77 668.885 1662.92 694.027C1675.33 713.343 1688.7 730.435 1711.79 750.055C1723.99 760.427 1741.24 765.522 1753.66 771.173C1753.67 771.39 1753.68 771.608 1753.69 771.826C1753.05 772.276 1752.41 772.724 1751.78 773.175C1717.03 774.483 1672.26 754.177 1649.14 727.386C1628.15 703.062 1622.19 678.273 1604.91 653.903C1590.48 633.551 1560.69 615.973 1530.94 598.7C1531.42 598.363 1531.89 598.025 1532.37 597.689C1546.64 597.381 1566.25 605.365 1580.31 611.151C1585.69 613.884 1591.07 616.615 1596.45 619.347ZM2014.02 892.774C2013.82 897.318 1972.63 917.641 1965.97 920.591C1914.89 943.209 1864.42 958.219 1812.65 964.586C1777.72 968.88 1741.98 969.008 1706.7 965.708C1674.6 960.887 1642.5 956.064 1610.4 951.242C1524.74 940.119 1417.8 948.817 1347.94 1024.26C1334 1039.32 1320.77 1055.41 1313.55 1070.81C1312.9 1070.82 1312.24 1070.84 1311.58 1070.85C1311.4 1070.53 1311.22 1070.2 1311.04 1069.88C1324.27 1048.86 1335.83 1026.81 1353.98 1005.15C1410.08 938.165 1512.45 925.813 1586.88 932.71C1621.82 935.947 1656.03 943.683 1691.12 948.329C1720.01 952.155 1748.56 952.38 1777.15 953.828C1828.92 956.447 1907.01 937.632 1958.47 918.45C1977.32 911.426 1994.14 900.422 2014.02 892.774ZM974.411 305.102C975.72 306.762 975.467 305.763 975.008 307.383C972.897 312.955 964.382 317.908 958.968 323.425C937.308 345.488 903.455 367.692 872.834 381.48C815.686 407.214 762.178 416.191 704.113 412.02C631.929 406.836 554.831 387.96 483.978 406.567C400.578 428.467 327.846 492.504 309.728 544.336C305.531 556.348 301.354 568.556 299.524 580.573C298.647 586.331 302.757 594.838 297.453 600.27C297.094 599.622 296.739 598.974 296.38 598.325C290.184 587.476 294.183 565.44 296.348 553.775C306.9 496.899 355.906 423.198 462.641 392.575C549.189 367.744 636.849 391.423 724.602 396.217C811.41 400.961 892.868 366.405 974.411 305.102ZM2019.65 973.904C2020.1 983.111 2005.25 996.109 1997.39 1005.14C1963.6 1043.94 1901.73 1075 1852.07 1084.68C1818.13 1091.3 1780.8 1094.33 1746.42 1092.35C1659.78 1087.36 1567.32 1074.16 1483.98 1132.94C1474.91 1139.56 1465.84 1146.19 1456.77 1152.81C1445.13 1164.39 1433.49 1175.98 1421.85 1187.57C1418.77 1192.22 1415.7 1196.86 1412.62 1201.51C1412.11 1201.19 1411.61 1200.88 1411.1 1200.56C1410.91 1200.02 1410.72 1199.47 1410.53 1198.93C1425.2 1178.8 1434.06 1157.86 1453.56 1136.17C1478.89 1108 1525.99 1086.41 1560.47 1079.66C1591.32 1073.62 1622.16 1068.02 1653.21 1069.63C1718.03 1072.99 1784.69 1080.52 1848.87 1068.04C1889.6 1060.12 1924.68 1040.43 1965.42 1017.57C1979.32 1009.76 2015.51 974.958 2019.65 973.904ZM1973.75 950.902C1974.93 955.081 1953.41 967.417 1946.06 971.106C1914.55 986.929 1888.5 1001.07 1857.58 1009.88C1814.83 1022.06 1768.58 1026.14 1725.05 1022.99C1640.94 1016.91 1563.66 996.024 1480.73 1027.85C1420.8 1050.84 1374.04 1100.49 1352.47 1135.88C1346.08 1147.36 1339.7 1158.84 1333.31 1170.33C1331.9 1173.54 1330.99 1181.38 1326.95 1182.25C1326.73 1181.05 1326.51 1179.85 1326.29 1178.66C1330.93 1164.81 1335.56 1150.95 1340.2 1137.1C1347.37 1115.86 1361.36 1093.76 1378.72 1072.79C1388.02 1063.98 1397.32 1055.16 1406.62 1046.36C1426.08 1026.89 1460.35 1013.23 1482.71 1006.19C1577.16 976.449 1652.65 1001.95 1747.03 1007.49C1805.45 1010.92 1866.99 998.743 1924.08 975.802C1941.47 968.816 1956.01 959.407 1973.75 950.902ZM1528.62 678.676C1529.13 678.993 1529.63 679.312 1530.14 679.628C1532.07 691.663 1523.27 705.612 1525.97 718.367C1534.94 760.746 1551.33 799.907 1587.75 842.278C1601.87 858.709 1628.89 881.166 1658.47 890.993C1685.87 900.096 1713.2 900.976 1740.35 902.798C1752.25 903.597 1771.29 900.453 1782.35 904.912C1782.2 905.242 1782.05 905.574 1781.9 905.904C1754.16 914.452 1720.19 918.678 1691.68 916.868C1675.16 915.819 1657.47 912.798 1640.96 907.392C1560.53 881.063 1531.64 812.171 1521.07 773.828C1519.81 764.136 1518.55 754.44 1517.29 744.748C1514.14 729.576 1515.13 693.038 1528.62 678.676ZM977.693 356.141C978.053 356.789 978.408 357.437 978.767 358.085C932.334 404.652 917.145 448.858 910.946 494.398C910.964 513.068 910.982 531.744 911.002 550.412C906.146 591.378 900.107 626.86 859.164 669.372C809.068 721.382 717.48 732.26 658.699 717.577C623.777 708.853 575.583 678.043 578.999 655.609C579.476 655.273 579.955 654.935 580.432 654.599C582.391 657.944 584.349 661.291 586.308 664.637C591.965 669.873 597.627 675.113 603.285 680.35C621.436 696.036 648.807 702.492 667.513 705.281C731.479 714.814 811.443 693.559 852.825 638.048C889.251 589.184 873.875 548.967 880.224 501.883C886.743 453.523 908.894 404.898 977.693 356.141ZM1341.57 707.288C1342.08 707.605 1342.59 707.923 1343.09 708.24C1323.15 722.113 1315.38 740.472 1307.72 754.805C1292.38 783.494 1282.83 812.283 1267.69 840.443C1231.52 907.745 1187.75 983.341 1071.19 1042.53C1046.11 1055.27 1025.44 1069.39 1000.84 1078.66C884.328 1122.52 772.431 1080.8 653.828 1069.5C627.13 1066.95 599.235 1064.07 572.837 1066.52C521.37 1071.3 479.576 1081.24 427.784 1108.06C409.423 1117.56 389.723 1131.53 376.652 1144.13C371.265 1148.6 365.878 1153.08 360.491 1157.55C360.323 1157.44 360.154 1157.34 359.985 1157.23C359.956 1156.58 359.926 1155.92 359.897 1155.27C366.139 1147.94 372.384 1140.61 378.628 1133.28C415.62 1089.29 478.969 1063.38 534.84 1054.83C611.19 1043.14 688.291 1059.71 765.835 1071.53C809.041 1078.12 854.902 1088.56 897.57 1084.64C939.276 1080.8 977.276 1072.61 1019 1055.04C1071.85 1032.78 1139.35 995.497 1176.72 955.267C1214.03 915.101 1236.13 876.516 1257.19 837.048C1277.64 798.711 1288.99 744.248 1341.57 707.288ZM843.196 467.898C849.063 475.019 842.237 499.427 840.068 507.925C835.338 526.439 827.864 544.607 812.002 563.517C774.148 608.645 699.762 620.4 650.349 608.66C590.372 594.41 564.406 548.992 581.264 519.618C594.226 497.034 649.121 476.901 672.427 485.704C672.277 486.034 672.126 486.365 671.977 486.695C664.728 489.414 656.392 491.305 648.687 495.02C629.736 504.157 621.193 517.427 618.099 527.402C605.258 568.77 661.133 598.023 718.937 587.967C774.663 578.273 809.245 539.206 826.7 506.552C830.764 498.934 837.122 471.63 843.196 467.898ZM563.993 442.651C564.5 442.968 565.008 443.286 565.515 443.603C535.59 456.01 494.675 479.396 472.037 502.788C399.599 577.634 399.468 642.241 461.817 713.956C477.577 732.081 501.473 748.476 530.239 766.319C538.824 770.842 547.41 775.37 555.995 779.893C555.188 780.237 554.383 780.58 553.577 780.925C532.511 773.957 512.056 766.124 489.348 755.994C455.42 740.858 431.81 713.568 419.05 694.823C381.996 640.382 383.756 585.646 431.331 529.476C453.862 502.873 523.463 450.697 563.993 442.651ZM1513.32 1193.29C1519.45 1198.51 1515.72 1208.3 1517.22 1214.17C1521.04 1229.23 1527.76 1244.48 1535.52 1259.35C1571.43 1328.12 1628.33 1372.66 1572.96 1445C1560.53 1461.24 1533.29 1481.12 1508.96 1490.82C1489.26 1498.68 1468.31 1504.56 1448.11 1508.08C1419.13 1513.13 1387.38 1513.65 1358.01 1510.85C1275.22 1502.97 1168.63 1450.56 1116.39 1389.53C1046.3 1307.67 1025.38 1228.56 1053.61 1144.77C1061.29 1121.94 1081.54 1081.2 1111.87 1059.09C1112.22 1059.52 1112.57 1059.95 1112.92 1060.38C1037.56 1166.36 1053.12 1272.56 1141.86 1374.94C1226.72 1472.84 1382.84 1519.94 1499.92 1476.26C1524.79 1466.98 1551.56 1447.17 1562.46 1430.79C1606.87 1364.08 1544.53 1319.54 1518.6 1255.75C1512.27 1240.19 1501.5 1208.08 1513.32 1193.29ZM1170.34 1043.51C1173.06 1048.92 1160.27 1070.94 1158.07 1077.83C1150.13 1102.8 1148.1 1127.61 1145.16 1152.44C1142.87 1171.83 1147.07 1192.64 1151.78 1211.93C1164.23 1262.88 1187.18 1309.22 1236.35 1360.28C1249.85 1374.3 1267.44 1386.11 1284.48 1399.95C1283.85 1400.4 1283.21 1400.85 1282.57 1401.3C1249.26 1385.64 1217.29 1361.78 1198.57 1342.36C1130.34 1271.59 1113.91 1204.49 1129.47 1132.44C1134.34 1109.87 1142.12 1088.12 1156.02 1065.09C1159.61 1059.15 1163.01 1047.62 1170.34 1043.51ZM1274.08 1124.99C1280.22 1131.48 1277.23 1154.51 1279.26 1163.21C1285.5 1190.07 1293.72 1218.82 1310.55 1245.14C1335.55 1284.23 1377.68 1336.99 1453.17 1368.75C1469.34 1375.56 1485.79 1381.89 1502.27 1386.12C1510.8 1388.31 1521.3 1388.32 1529.17 1392.14C1529.01 1392.25 1528.85 1392.37 1528.69 1392.48C1526.89 1392.62 1525.09 1392.77 1523.29 1392.91C1513.86 1391.68 1504.44 1390.45 1495.02 1389.22C1474.23 1386.05 1452.69 1379.01 1432.07 1370.81C1344.3 1335.9 1296.79 1271.35 1279.07 1224.8C1274.08 1211.69 1273.1 1198.1 1270.38 1185.01C1267.68 1172.04 1265.93 1136.94 1274.08 1124.99ZM1016.4 964.35C1016.76 964.998 1017.11 965.647 1017.47 966.295C1007.99 975.477 1000.3 987.962 984.826 996.754C899.969 1044.96 820.683 1037.75 733.505 1021.4C711.57 1017.29 689.736 1012.66 667.3 1007.32C660.664 1005.74 652.819 1005.61 646.376 1002.5C654.152 999.784 685.577 1005.8 695.392 1007.09C735.998 1012.45 777.584 1016.72 818.2 1019.07C866.711 1021.87 917.55 1013.75 965.005 994.531C975.126 989.417 985.254 984.301 995.376 979.186C1002.38 974.237 1009.39 969.293 1016.4 964.35ZM402.496 1203.56C395.902 1199.43 389.306 1195.3 382.709 1191.17C396.213 1180.14 408.58 1164.96 428.405 1154.89C445.113 1146.4 458.657 1136.37 475.083 1129.39C528.964 1106.51 583.941 1096.95 638.935 1100.26C686.423 1103.12 733.005 1114.39 780.876 1121.02C864.138 1132.56 974.533 1135.84 1054.05 1089.06C1054.73 1089.49 1055.41 1089.91 1056.08 1090.33C1021.92 1118.54 975.01 1129.82 937.33 1135.6C872.927 1145.49 808.135 1142.07 742.985 1133.57C710.412 1129.08 677.828 1124.6 645.253 1120.11C577.41 1114.47 516.962 1134.9 450.221 1168.54C431.662 1177.9 416.73 1192.85 402.496 1203.56ZM955.972 1166.36C956.319 1166.79 956.669 1167.22 957.016 1167.65C932.311 1197.52 887.308 1213.7 851.364 1219.21C764.797 1232.48 675.811 1210.75 588.337 1202.82C563.014 1200.52 533.593 1199.33 508.42 1201.78C500.512 1202.55 474.795 1208.03 468.681 1206.18C469.158 1205.84 469.637 1205.5 470.114 1205.16C606.438 1164.09 741.811 1229.54 875.824 1203.99C895.491 1200.24 918.311 1192.6 936.919 1181.15C943.269 1176.22 949.619 1171.29 955.972 1166.36ZM3.44297 771.868C3.78048 772.08 4.12048 772.292 4.45799 772.504C-2.09057 774.745 -56.0265 771.41 -68.0563 771.651C-112.838 772.547 -156.944 779.434 -201.334 790.022C-213.717 792.977 -228.365 795.635 -240.269 801.278C-246.694 797.257 -253.122 793.235 -259.547 789.213C-259.388 789.101 -259.229 788.989 -259.07 788.877C-194.586 770.604 -126.455 761.403 -60.9484 765.286C-39.4838 767.48 -18.0193 769.673 3.44297 771.868ZM-382.375 711.067C-373.911 716.577 -365.443 722.088 -356.979 727.597C-357.138 727.709 -357.296 727.821 -357.455 727.933C-366.935 721.789 -376.418 715.643 -385.895 709.5C-384.723 710.021 -383.549 710.544 -382.375 711.067Z" fill="#D4AF37"/>
</svg>
