<svg width="121" height="120" viewBox="0 0 121 120" fill="none" xmlns="http://www.w3.org/2000/svg">
<circle cx="60.5" cy="60" r="60" fill="#FBE5C8"/>
<path d="M61 25.0625C54.09 25.0625 47.3352 27.1115 41.5898 30.9505C35.8443 34.7895 31.3663 40.246 28.722 46.63C26.0776 53.014 25.3858 60.0388 26.7338 66.816C28.0819 73.5932 31.4094 79.8184 36.2955 84.7045C41.1816 89.5906 47.4068 92.9181 54.184 94.2662C60.9613 95.6143 67.986 94.9224 74.37 92.278C80.754 89.6337 86.2105 85.1557 90.0495 79.4102C93.8885 73.6648 95.9375 66.91 95.9375 60C95.9277 50.737 92.2437 41.8562 85.6938 35.3063C79.1438 28.7563 70.263 25.0723 61 25.0625ZM61 89.5625C55.1531 89.5625 49.4375 87.8287 44.576 84.5803C39.7144 81.332 35.9253 76.7149 33.6878 71.3131C31.4503 65.9112 30.8649 59.9672 32.0056 54.2326C33.1462 48.4981 35.9618 43.2305 40.0962 39.0962C44.2306 34.9618 49.4981 32.1462 55.2327 31.0055C60.9672 29.8649 66.9113 30.4503 72.3131 32.6878C77.7149 34.9253 82.332 38.7144 85.5803 43.576C88.8287 48.4375 90.5625 54.1531 90.5625 60C90.5536 67.8377 87.4362 75.3519 81.894 80.894C76.3519 86.4361 68.8377 89.5536 61 89.5625ZM82.5 60C82.5 60.7128 82.2169 61.3963 81.7129 61.9004C81.2089 62.4044 80.5253 62.6875 79.8125 62.6875H61C60.2872 62.6875 59.6037 62.4044 59.0997 61.9004C58.5957 61.3963 58.3125 60.7128 58.3125 60V41.1875C58.3125 40.4747 58.5957 39.7912 59.0997 39.2872C59.6037 38.7831 60.2872 38.5 61 38.5C61.7128 38.5 62.3964 38.7831 62.9004 39.2872C63.4044 39.7912 63.6875 40.4747 63.6875 41.1875V57.3125H79.8125C80.5253 57.3125 81.2089 57.5956 81.7129 58.0997C82.2169 58.6037 82.5 59.2872 82.5 60Z" fill="black"/>
</svg>
