<svg width="121" height="120" viewBox="0 0 121 120" fill="none" xmlns="http://www.w3.org/2000/svg">
<circle cx="60.5" cy="60" r="60" fill="#FBE5C8"/>
<path d="M83.9668 51.25C82.9825 51.2448 82.0066 51.4305 81.093 51.7969L72.7559 41.3899C73.4412 40.4028 73.8845 39.2683 74.0501 38.0781C74.2156 36.888 74.0987 35.6755 73.7087 34.5389C73.3188 33.4023 72.6668 32.3735 71.8055 31.5356C70.9442 30.6977 69.8977 30.0743 68.7508 29.7158C67.6039 29.3573 66.3887 29.2739 65.2035 29.4721C64.0184 29.6704 62.8965 30.1448 61.9287 30.8571C60.9609 31.5693 60.1743 32.4994 59.6326 33.572C59.091 34.6446 58.8093 35.8297 58.8106 37.0313C58.8104 37.2998 58.8241 37.5681 58.8516 37.8352L46.1449 43.1289C45.3795 42.1901 44.4022 41.4463 43.2934 40.9586C42.1846 40.4709 40.9759 40.2533 39.7666 40.3236C38.5573 40.3939 37.382 40.7501 36.3372 41.363C35.2923 41.9758 34.4078 42.8279 33.7563 43.8491C33.1049 44.8703 32.705 46.0315 32.5895 47.2373C32.4741 48.4431 32.6464 49.6591 33.0923 50.7854C33.5383 51.9116 34.2451 52.916 35.1546 53.716C36.0642 54.516 37.1506 55.0887 38.3246 55.3871L38.8305 68.0692C37.6713 68.465 36.624 69.1331 35.7766 70.0174C34.9291 70.9018 34.3062 71.9766 33.9601 73.1515C33.614 74.3265 33.5549 75.5673 33.7877 76.7698C34.0205 77.9724 34.5384 79.1015 35.298 80.0624C36.0575 81.0234 37.0365 81.788 38.1528 82.2922C39.2691 82.7964 40.49 83.0254 41.7132 82.96C42.9363 82.8947 44.1258 82.5368 45.182 81.9164C46.2382 81.2961 47.1301 80.4314 47.7828 79.395L60.9981 83.0973C61.0166 84.3287 61.332 85.5375 61.9174 86.6211C62.5027 87.7046 63.3409 88.631 64.3607 89.3215C65.3804 90.0121 66.5517 90.4464 67.7752 90.5877C68.9986 90.7289 70.2381 90.573 71.3884 90.133C72.5387 89.6931 73.5659 88.9821 74.3829 88.0605C75.1998 87.1389 75.7823 86.0338 76.0811 84.839C76.3798 83.6442 76.3859 82.395 76.0988 81.1973C75.8117 79.9997 75.24 78.8889 74.432 77.9594L81.8723 66.27C82.9254 66.5697 84.0305 66.6402 85.1131 66.4765C86.1957 66.3128 87.2306 65.9188 88.148 65.3211C89.0654 64.7234 89.8439 63.9359 90.4311 63.0117C91.0182 62.0875 91.4002 61.0481 91.5515 59.9637C91.7027 58.8793 91.6195 57.775 91.3077 56.7255C90.9958 55.6759 90.4624 54.7055 89.7436 53.8796C89.0247 53.0537 88.137 52.3916 87.1405 51.938C86.144 51.4844 85.0617 51.2498 83.9668 51.25ZM68.6543 75.3125H68.4109L63.9867 62.0426L76.7426 61.4356C77.065 62.3393 77.5548 63.1741 78.1863 63.8965L70.7461 75.586C70.0648 75.3987 69.3609 75.3067 68.6543 75.3125ZM43.2027 67.8942L42.6969 55.2121C43.7281 54.8569 44.6716 54.2854 45.4641 53.536L57.0934 60.2735L45.7567 69.0836C44.9863 68.5326 44.1203 68.1293 43.2027 67.8942ZM66.8961 44.6875C67.7356 44.6417 68.5616 44.4569 69.3406 44.1407L77.6777 54.5477C77.146 55.3112 76.7586 56.1657 76.5348 57.0688L63.8008 57.6758L66.8961 44.6875ZM48.4445 72.5371L59.9043 63.6258L64.2629 76.7043C63.4329 77.2895 62.7267 78.0329 62.1848 78.8918L48.9668 75.184C48.9508 74.2778 48.7739 73.3816 48.4445 72.5371ZM66.4668 33.75C67.1158 33.75 67.7502 33.9425 68.2898 34.303C68.8294 34.6636 69.2499 35.176 69.4983 35.7756C69.7466 36.3752 69.8116 37.0349 69.685 37.6714C69.5584 38.3079 69.2459 38.8926 68.787 39.3515C68.3281 39.8104 67.7434 40.1229 67.1069 40.2495C66.4704 40.3761 65.8107 40.3111 65.2111 40.0628C64.6116 39.8144 64.0991 39.3938 63.7386 38.8543C63.378 38.3147 63.1856 37.6803 63.1856 37.0313C63.1856 36.161 63.5313 35.3264 64.1466 34.7111C64.762 34.0957 65.5966 33.75 66.4668 33.75ZM60.5387 41.8711C61.1265 42.5876 61.8377 43.1932 62.6387 43.6594L59.5488 56.634L47.6625 49.7516C47.8024 49.1676 47.873 48.5693 47.8731 47.9688C47.8732 47.7003 47.8595 47.432 47.832 47.1649L60.5387 41.8711ZM36.9356 47.9688C36.9356 47.3198 37.128 46.6854 37.4885 46.1458C37.8491 45.6062 38.3616 45.1857 38.9611 44.9373C39.5607 44.689 40.2204 44.624 40.8569 44.7506C41.4934 44.8772 42.0781 45.1897 42.537 45.6486C42.9959 46.1075 43.3084 46.6921 43.435 47.3286C43.5616 47.9651 43.4966 48.6249 43.2483 49.2245C42.9999 49.824 42.5794 50.3365 42.0398 50.697C41.5002 51.0576 40.8658 51.25 40.2168 51.25C39.3466 51.25 38.512 50.9043 37.8966 50.289C37.2813 49.6736 36.9356 48.839 36.9356 47.9688ZM41.3106 78.5938C40.6616 78.5938 40.0272 78.4013 39.4876 78.0408C38.948 77.6802 38.5274 77.1678 38.2791 76.5682C38.0307 75.9686 37.9657 75.3089 38.0924 74.6724C38.219 74.0359 38.5315 73.4512 38.9904 72.9923C39.4493 72.5335 40.0339 72.2209 40.6704 72.0943C41.3069 71.9677 41.9667 72.0327 42.5662 72.2811C43.1658 72.5294 43.6783 72.95 44.0388 73.4896C44.3994 74.0292 44.5918 74.6636 44.5918 75.3125C44.5918 76.1828 44.2461 77.0174 43.6308 77.6327C43.0154 78.2481 42.1808 78.5938 41.3106 78.5938ZM68.6543 86.25C68.0053 86.25 67.3709 86.0576 66.8313 85.697C66.2917 85.3365 65.8712 84.824 65.6228 84.2245C65.3745 83.6249 65.3095 82.9651 65.4361 82.3286C65.5627 81.6921 65.8752 81.1075 66.3341 80.6486C66.793 80.1897 67.3777 79.8772 68.0142 79.7506C68.6507 79.624 69.3104 79.689 69.91 79.9373C70.5096 80.1857 71.022 80.6062 71.3826 81.1458C71.7431 81.6854 71.9356 82.3198 71.9356 82.9688C71.9356 83.839 71.5899 84.6736 70.9745 85.289C70.3591 85.9043 69.5246 86.25 68.6543 86.25ZM83.9668 62.1875C83.3178 62.1875 82.6834 61.9951 82.1438 61.6345C81.6042 61.274 81.1837 60.7615 80.9353 60.162C80.687 59.5624 80.622 58.9026 80.7486 58.2661C80.8752 57.6296 81.1877 57.045 81.6466 56.5861C82.1055 56.1272 82.6902 55.8147 83.3267 55.6881C83.9632 55.5615 84.6229 55.6265 85.2225 55.8748C85.8221 56.1232 86.3345 56.5437 86.6951 57.0833C87.0556 57.6229 87.2481 58.2573 87.2481 58.9063C87.2481 59.7765 86.9024 60.6111 86.287 61.2265C85.6716 61.8418 84.8371 62.1875 83.9668 62.1875Z" fill="black"/>
</svg>
