<svg width="120" height="120" viewBox="0 0 120 120" fill="none" xmlns="http://www.w3.org/2000/svg">
<circle cx="60" cy="60" r="60" fill="#FBE5C8"/>
<path d="M90.375 34.1875H29.625C28.9537 34.1875 28.3098 34.4542 27.8351 34.9289C27.3604 35.4036 27.0938 36.0474 27.0938 36.7188V79.75C27.0938 81.0927 27.6271 82.3803 28.5765 83.3297C29.5259 84.2791 30.8136 84.8125 32.1562 84.8125H87.8438C89.1864 84.8125 90.4741 84.2791 91.4235 83.3297C92.3729 82.3803 92.9062 81.0927 92.9062 79.75V36.7188C92.9062 36.0474 92.6396 35.4036 92.1649 34.9289C91.6902 34.4542 91.0463 34.1875 90.375 34.1875ZM60 61.1295L36.1335 39.25H83.8665L60 61.1295ZM50.7325 59.5L32.1562 76.5258V42.4742L50.7325 59.5ZM54.4787 62.933L58.2756 66.4293C58.7426 66.858 59.3534 67.0958 59.9873 67.0958C60.6213 67.0958 61.2321 66.858 61.6991 66.4293L65.496 62.933L83.8475 79.75H36.1335L54.4787 62.933ZM69.2675 59.5L87.8438 42.471V76.529L69.2675 59.5Z" fill="black"/>
</svg>
