<svg width="120" height="120" viewBox="0 0 120 120" fill="none" xmlns="http://www.w3.org/2000/svg">
<circle cx="60" cy="60" r="60" fill="#FBE5C8"/>
<path d="M59.4375 43.25C57.3052 43.25 55.2207 43.8823 53.4478 45.067C51.6748 46.2516 50.2929 47.9354 49.4769 49.9054C48.6609 51.8755 48.4474 54.0432 48.8634 56.1346C49.2794 58.2259 50.3062 60.147 51.814 61.6547C53.3218 63.1625 55.2428 64.1893 57.3342 64.6053C59.4255 65.0213 61.5933 64.8078 63.5633 63.9918C65.5333 63.1758 67.2171 61.794 68.4018 60.021C69.5864 58.248 70.2188 56.1636 70.2188 54.0312C70.2188 51.1719 69.0829 48.4296 67.061 46.4078C65.0391 44.3859 62.2969 43.25 59.4375 43.25ZM59.4375 60.5C58.1581 60.5 56.9074 60.1206 55.8437 59.4098C54.7799 58.699 53.9508 57.6887 53.4612 56.5067C52.9715 55.3247 52.8434 54.0241 53.093 52.7693C53.3426 51.5144 53.9587 50.3618 54.8634 49.4572C55.7681 48.5525 56.9207 47.9364 58.1755 47.6868C59.4303 47.4372 60.731 47.5653 61.913 48.0549C63.095 48.5445 64.1053 49.3736 64.8161 50.4374C65.5269 51.5012 65.9062 52.7519 65.9062 54.0312C65.9062 55.7469 65.2247 57.3922 64.0116 58.6053C62.7985 59.8185 61.1531 60.5 59.4375 60.5ZM59.4375 30.3125C53.1491 30.3196 47.1203 32.8209 42.6737 37.2674C38.2271 41.714 35.7259 47.7428 35.7188 54.0312C35.7188 62.4945 39.6296 71.4645 47.0391 79.9736C50.3684 83.8187 54.1155 87.281 58.2111 90.2967C58.5737 90.5507 59.0056 90.6869 59.4483 90.6869C59.8909 90.6869 60.3229 90.5507 60.6854 90.2967C64.7735 87.2798 68.5134 83.8175 71.8359 79.9736C79.2346 71.4645 83.1562 62.4945 83.1562 54.0312C83.1491 47.7428 80.6479 41.714 76.2013 37.2674C71.7547 32.8209 65.7259 30.3196 59.4375 30.3125ZM59.4375 85.8359C54.9821 82.332 40.0312 69.4619 40.0312 54.0312C40.0312 48.8844 42.0758 43.9483 45.7152 40.309C49.3546 36.6696 54.2906 34.625 59.4375 34.625C64.5844 34.625 69.5204 36.6696 73.1598 40.309C76.7992 43.9483 78.8438 48.8844 78.8438 54.0312C78.8438 69.4565 63.8929 82.332 59.4375 85.8359Z" fill="black"/>
</svg>
