<svg width="120" height="120" viewBox="0 0 120 120" fill="none" xmlns="http://www.w3.org/2000/svg">
<circle cx="60" cy="60" r="60" fill="#FBE5C8"/>
<path d="M65.5261 33.0706C65.6152 32.7375 65.7691 32.4251 65.979 32.1515C66.1888 31.8778 66.4505 31.6482 66.7491 31.4758C67.0478 31.3033 67.3774 31.1913 67.7193 31.1463C68.0612 31.1013 68.4087 31.1241 68.7418 31.2134C73.6081 32.4831 78.0479 35.027 81.6041 38.5832C85.1603 42.1394 87.7043 46.5793 88.9739 51.4456C89.0632 51.7787 89.086 52.1261 89.041 52.468C88.996 52.8099 88.8841 53.1396 88.7116 53.4382C88.5391 53.7368 88.3095 53.9986 88.0359 54.2084C87.7622 54.4183 87.4499 54.5721 87.1168 54.6612C86.895 54.7195 86.6668 54.7492 86.4375 54.7498C85.8591 54.7498 85.2968 54.5587 84.8382 54.2063C84.3795 53.8538 84.0501 53.3597 83.9011 52.8008C82.8656 48.8282 80.7894 45.2037 77.8865 42.3008C74.9836 39.398 71.3591 37.3218 67.3866 36.2862C67.0532 36.1975 66.7405 36.0439 66.4665 35.8342C66.1925 35.6245 65.9625 35.3628 65.7897 35.0641C65.6169 34.7655 65.5047 34.4357 65.4594 34.0936C65.4142 33.7515 65.4369 33.4039 65.5261 33.0706ZM64.7616 46.7862C69.2864 47.9937 72.1936 50.9009 73.4011 55.4258C73.5501 55.9847 73.8795 56.4788 74.3382 56.8313C74.7968 57.1837 75.3591 57.3748 75.9375 57.3748C76.1668 57.3742 76.395 57.3445 76.6168 57.2862C76.9499 57.1971 77.2622 57.0433 77.5359 56.8334C77.8095 56.6236 78.0391 56.3618 78.2116 56.0632C78.3841 55.7646 78.496 55.4349 78.541 55.093C78.586 54.7511 78.5632 54.4037 78.4739 54.0706C76.7939 47.7837 72.4036 43.3934 66.1168 41.7134C65.4441 41.5337 64.7275 41.6286 64.1248 41.9772C63.522 42.3258 63.0825 42.8995 62.9028 43.5722C62.7231 44.2449 62.8179 44.9615 63.1665 45.5642C63.5151 46.167 64.0889 46.6065 64.7616 46.7862ZM91.6482 78.0729C91.0631 82.5191 88.8795 86.6003 85.5053 89.5543C82.1311 92.5082 77.797 94.1329 73.3125 94.1248C47.2594 94.1248 26.0625 72.928 26.0625 46.8748C26.0545 42.3903 27.6792 38.0562 30.6331 34.682C33.587 31.3078 37.6682 29.1243 42.1144 28.5392C43.2387 28.4019 44.3773 28.6319 45.3602 29.1949C46.343 29.7579 47.1175 30.6237 47.5678 31.6629L54.4978 47.134V47.1734C54.8427 47.969 54.9851 48.8375 54.9124 49.7015C54.8396 50.5656 54.5541 51.3981 54.0811 52.1248C54.0221 52.2134 53.9597 52.2954 53.8941 52.3775L47.0625 60.4756C49.5202 65.4697 54.7439 70.6475 59.8036 73.1117L67.7902 66.3162C67.8686 66.2503 67.9508 66.1889 68.0363 66.1325C68.7624 65.6482 69.5978 65.3526 70.4669 65.2723C71.336 65.1921 72.2114 65.3299 73.0139 65.6731L73.0566 65.6928L88.5146 72.6195C89.5557 73.0683 90.4236 73.842 90.9884 74.825C91.5532 75.808 91.7847 76.9475 91.6482 78.0729ZM86.4375 77.4167C86.4375 77.4167 86.4146 77.4167 86.4014 77.4167L70.9796 70.5097L62.9897 77.3051C62.9122 77.3708 62.8312 77.4321 62.7469 77.4889C61.9914 77.9929 61.1181 78.2923 60.2123 78.3579C59.3065 78.4235 58.3991 78.2529 57.5789 77.8629C51.4332 74.8934 45.3071 68.8133 42.3342 62.7331C41.9406 61.9189 41.7639 61.0168 41.8214 60.1142C41.8789 59.2116 42.1686 58.3392 42.6624 57.5815C42.718 57.4926 42.7806 57.4081 42.8494 57.3289L49.6875 49.2209L42.7969 33.799C42.7956 33.786 42.7956 33.7728 42.7969 33.7597C39.6149 34.1747 36.6934 35.7355 34.5794 38.1497C32.4654 40.5639 31.3039 43.6659 31.3125 46.8748C31.3247 58.0102 35.7536 68.686 43.6275 76.5599C51.5014 84.4338 62.1772 88.8627 73.3125 88.8748C76.5195 88.8858 79.6207 87.7284 82.0363 85.619C84.4518 83.5096 86.0164 80.5926 86.4375 77.4134V77.4167Z" fill="black"/>
</svg>
